<svg xmlns="http://www.w3.org/2000/svg" xmlns:xlink="http://www.w3.org/1999/xlink" width="282.333" height="65.646" viewBox="0 0 282.333 65.646">
  <defs>
    <filter id="Path_76767" x="-8.434" y="3.899" width="57.666" height="92.247" filterUnits="userSpaceOnUse">
      <feOffset dx="2" dy="20" input="SourceAlpha"/>
      <feGaussianBlur stdDeviation="3.5" result="blur"/>
      <feFlood flood-opacity="0.102"/>
      <feComposite operator="in" in2="blur"/>
      <feComposite in="SourceGraphic"/>
    </filter>
    <linearGradient id="linear-gradient" x1="0.5" x2="0.5" y2="1" gradientUnits="objectBoundingBox">
      <stop offset="0" stop-color="#20dae0"/>
      <stop offset="1" stop-color="#20dae0"/>
    </linearGradient>
    <clipPath id="clip-path">
      <g transform="matrix(1, 0, 0, 1, 0, 0)" filter="url(#Path_76767)">
        <path id="Path_76767-2" data-name="Path 76767" d="M0,61.747,1.059.685S36-6.562,36.658,26.092c.327,16.229-9.818,27.926-20.2,35.655Z" transform="translate(0 0)" fill="#2abcc1" opacity="0.03"/>
      </g>
    </clipPath>
  </defs>
  <g id="logo_xl_dark" transform="translate(-20 -113)">
    <path id="Path_80475" data-name="Path 80475" d="M18.409-8.774c0,2.05-1.353,3.116-3.69,3.116H9.553v-6.355h5.084C16.974-12.013,18.409-10.824,18.409-8.774Zm-.7-11.357c0,1.968-1.271,2.993-3.567,2.993H9.553v-6.027h4.592C16.441-23.165,17.712-22.1,17.712-20.131Zm7.79,12.3a6.979,6.979,0,0,0-5.535-6.929,6.53,6.53,0,0,0,4.879-6.56c0-4.551-3.485-7.462-9.348-7.462H2.542V0H15.949C22.017,0,25.5-3.075,25.5-7.831ZM29.561,0h7.011V-22.878H29.561Zm3.526-25.256a3.86,3.86,0,0,0,4.141-3.772,3.866,3.866,0,0,0-4.141-3.813,3.879,3.879,0,0,0-4.182,3.813A3.872,3.872,0,0,0,33.087-25.256Zm9.676,17.3C42.763-2.009,46.084,0,50.84,0h3.567V-5.945h-2.5c-1.558,0-2.132-.574-2.132-1.927v-9.184h4.592v-5.822H49.774v-5.576H42.763v5.576H39.975v5.822h2.788ZM76.875-6.642c-.123-8.528-12.5-5.945-12.5-9.594,0-1.107.9-1.763,2.542-1.763,1.968,0,3.157,1.025,3.362,2.583h6.478c-.451-4.51-3.731-7.79-9.635-7.79-5.986,0-9.307,3.2-9.307,7.093,0,8.405,12.464,5.74,12.464,9.43,0,1.025-.943,1.845-2.747,1.845C65.6-4.838,64.165-5.9,64-7.5H57.072C57.4-3.075,61.5.328,67.609.328,73.349.328,76.875-2.665,76.875-6.642Z" transform="translate(83.352 160)" fill="#fff"/>
    <g id="Group_24881" data-name="Group 24881">
      <path id="Path_80474" data-name="Path 80474" d="M88.191-19.639v-10.7H81.18V0h7.011V-3.2A8.04,8.04,0,0,0,95.243.328c5.617,0,10.086-4.592,10.086-11.808S100.9-23.206,95.243-23.206A8.077,8.077,0,0,0,88.191-19.639Zm10,8.159c0,3.649-2.378,5.7-5.043,5.7-2.624,0-5-2.009-5-5.658s2.378-5.658,5-5.658C95.817-17.1,98.195-15.129,98.195-11.48Zm17.835.861c0-3.936,1.927-5.084,5.248-5.084h1.927v-7.421a8.529,8.529,0,0,0-7.175,4.059v-3.813h-7.011V0h7.011Zm20.623-6.97c2.337,0,4.3,1.435,4.3,3.936h-8.774A4.336,4.336,0,0,1,136.653-17.589Zm10.947,10h-7.462a3.728,3.728,0,0,1-3.649,2.214c-2.255,0-4.1-1.394-4.346-4.387H148.01a17.717,17.717,0,0,0,.123-2.05c0-6.97-4.715-11.4-11.4-11.4-6.806,0-11.562,4.51-11.562,11.767S130.011.328,136.735.328C142.434.328,146.493-3.116,147.6-7.585Zm14.309-10c2.337,0,4.3,1.435,4.3,3.936H157.44A4.336,4.336,0,0,1,161.909-17.589Zm10.947,10h-7.462a3.728,3.728,0,0,1-3.649,2.214c-2.255,0-4.1-1.394-4.346-4.387h15.867a17.717,17.717,0,0,0,.123-2.05c0-6.97-4.715-11.4-11.4-11.4-6.806,0-11.562,4.51-11.562,11.767S155.267.328,161.991.328C167.69.328,171.749-3.116,172.856-7.585Zm20.5-15.293H175.89V-17.1h9.43L175.808-5.576V0h17.753V-5.781h-9.922L193.356-17.3ZM207.5-17.589c2.337,0,4.3,1.435,4.3,3.936h-8.774A4.336,4.336,0,0,1,207.5-17.589Zm10.947,10h-7.462a3.728,3.728,0,0,1-3.649,2.214c-2.255,0-4.1-1.394-4.346-4.387h15.867a17.717,17.717,0,0,0,.123-2.05c0-6.97-4.715-11.4-11.4-11.4-6.806,0-11.562,4.51-11.562,11.767S200.859.328,207.583.328C213.282.328,217.341-3.116,218.448-7.585Z" transform="translate(83.352 160)" fill="#20dae0"/>
      <g id="Group_24880" data-name="Group 24880" transform="translate(20 113)">
        <path id="Union_48" data-name="Union 48" d="M0,0H23.477a21.255,21.255,0,0,1,0,42.51H0Z" transform="translate(0 23.076)" fill="url(#linear-gradient)"/>
        <g id="Mask_Group_2" data-name="Mask Group 2" transform="translate(0.066 3.899)" clip-path="url(#clip-path)">
          <path id="Union_49" data-name="Union 49" d="M0,0H23.477a21.255,21.255,0,0,1,0,42.51H0Z" transform="translate(-0.066 19.176)" fill="#2abcc1"/>
        </g>
        <path id="Path_76768" data-name="Path 76768" d="M6224.979,2626.07l.009-65.057s36.018-5.9,36.6,23.2S6224.979,2626.07,6224.979,2626.07Z" transform="translate(-6224.979 -2560.522)" fill="#fff"/>
      </g>
    </g>
  </g>
</svg>
